<svg width="28" height="28" viewBox="0 0 28 28" fill="none" xmlns="http://www.w3.org/2000/svg">
<circle cx="14" cy="14" r="14" fill="#014DAF"/>
<path d="M7.3335 12.6668H20.6668V11.4668C20.6668 10.7201 20.6668 10.3467 20.5215 10.0615C20.3937 9.81063 20.1897 9.60665 19.9388 9.47882C19.6536 9.3335 19.2802 9.3335 18.5335 9.3335H9.46683C8.72009 9.3335 8.34672 9.3335 8.06151 9.47882C7.81063 9.60665 7.60665 9.81063 7.47882 10.0615C7.3335 10.3467 7.3335 10.7201 7.3335 11.4668V16.5335C7.3335 17.2802 7.3335 17.6536 7.47882 17.9388C7.60665 18.1897 7.81063 18.3937 8.06151 18.5215C8.34672 18.6668 8.72009 18.6668 9.46683 18.6668H13.3335M15.6668 20.0002L17.0168 19.7302C17.1345 19.7066 17.1934 19.6949 17.2483 19.6733C17.297 19.6542 17.3433 19.6294 17.3862 19.5995C17.4345 19.5658 17.477 19.5233 17.5619 19.4385L20.3335 16.6668C20.7017 16.2986 20.7017 15.7017 20.3335 15.3335C19.9653 14.9653 19.3684 14.9653 19.0002 15.3335L16.2285 18.1051C16.1436 18.19 16.1012 18.2325 16.0675 18.2808C16.0375 18.3237 16.0128 18.37 15.9937 18.4187C15.9721 18.4736 15.9604 18.5325 15.9368 18.6502L15.6668 20.0002Z" stroke="white" stroke-linecap="round" stroke-linejoin="round"/>
</svg>
