<svg width="28" height="28" viewBox="0 0 28 28" fill="none" xmlns="http://www.w3.org/2000/svg">
<circle cx="14" cy="14" r="14" fill="#014DAF"/>
<path d="M20.6668 12.6668H7.3335M20.6668 13.3335V11.4668C20.6668 10.7201 20.6668 10.3467 20.5215 10.0615C20.3937 9.81063 20.1897 9.60665 19.9388 9.47882C19.6536 9.3335 19.2802 9.3335 18.5335 9.3335H9.46683C8.72009 9.3335 8.34672 9.3335 8.06151 9.47882C7.81063 9.60665 7.60665 9.81063 7.47882 10.0615C7.3335 10.3467 7.3335 10.7201 7.3335 11.4668V16.5335C7.3335 17.2802 7.3335 17.6536 7.47882 17.9388C7.60665 18.1897 7.81063 18.3937 8.06151 18.5215C8.34672 18.6668 8.72009 18.6668 9.46683 18.6668H13.6668M18.0002 20.0002C18.0002 20.0002 20.0002 19.0469 20.0002 17.617V15.9488L18.5418 15.4276C18.1914 15.3021 17.8082 15.3021 17.4578 15.4276L16.0002 15.9488V17.617C16.0002 19.0469 18.0002 20.0002 18.0002 20.0002Z" stroke="white" stroke-linecap="round" stroke-linejoin="round"/>
</svg>
